<?xml version="1.0" encoding="utf-8" standalone="no"?>
<!DOCTYPE svg PUBLIC "-//W3C//DTD SVG 1.1//EN"
  "http://www.w3.org/Graphics/SVG/1.1/DTD/svg11.dtd">
<svg xmlns:xlink="http://www.w3.org/1999/xlink" width="504pt" height="360pt" viewBox="0 0 504 360" xmlns="http://www.w3.org/2000/svg" version="1.1">
 <metadata>
  <rdf:RDF xmlns:dc="http://purl.org/dc/elements/1.1/" xmlns:cc="http://creativecommons.org/ns#" xmlns:rdf="http://www.w3.org/1999/02/22-rdf-syntax-ns#">
   <cc:Work>
    <dc:type rdf:resource="http://purl.org/dc/dcmitype/StillImage"/>
    <dc:date>2026-09-01T23:58:03.323067</dc:date>
    <dc:format>image/svg+xml</dc:format>
    <dc:creator>
     <cc:Agent>
      <dc:title>Matplotlib v3.11.0, https://matplotlib.org/</dc:title>
     </cc:Agent>
    </dc:creator>
   </cc:Work>
  </rdf:RDF>
 </metadata>
 <defs>
  <style type="text/css">*{stroke-linejoin: round; stroke-linecap: butt}</style>
 </defs>
 <g id="figure_1">
  <g id="patch_1">
   <path d="M 0 360 
L 504 360 
L 504 0 
L 0 0 
z
" style="fill: #ffffff"/>
  </g>
  <g id="axes_1">
   <g id="patch_2">
    <path d="M 61.4 312.506406 
L 493.2 312.506406 
L 493.2 30.12 
L 61.4 30.12 
z
" style="fill: #ffffff"/>
   </g>
   <g id="matplotlib.axis_1">
    <g id="xtick_1">
     <g id="line2d_1">
      <defs>
       <path id="m1ff206cfa5" d="M 0 0 
L 0 3.5 
" style="stroke: #000000; stroke-width: 0.8"/>
      </defs>
      <g>
       <use xlink:href="#m1ff206cfa5" x="81.027273" y="312.506406" style="stroke: #000000; stroke-width: 0.8"/>
      </g>
     </g>
     <g id="text_1">
      <!-- $\mathdefault{0}$ -->
      <g transform="translate(78.027273 327.967344) scale(0.12 -0.12)">
       <defs>
        <path id="Cmr10-28" d="M 1600 -141 
Q 816 -141 533 504 
Q 250 1150 250 2041 
Q 250 2597 351 3087 
Q 453 3578 754 3920 
Q 1056 4263 1600 4263 
Q 2022 4263 2290 4056 
Q 2559 3850 2700 3523 
Q 2841 3197 2892 2823 
Q 2944 2450 2944 2041 
Q 2944 1491 2842 1011 
Q 2741 531 2444 195 
Q 2147 -141 1600 -141 
z
M 1600 25 
Q 1956 25 2131 390 
Q 2306 756 2347 1200 
Q 2388 1644 2388 2144 
Q 2388 2625 2347 3031 
Q 2306 3438 2132 3767 
Q 1959 4097 1600 4097 
Q 1238 4097 1063 3765 
Q 888 3434 847 3029 
Q 806 2625 806 2144 
Q 806 1788 823 1472 
Q 841 1156 916 820 
Q 991 484 1158 254 
Q 1325 25 1600 25 
z
" transform="scale(0.015625)"/>
       </defs>
       <use xlink:href="#Cmr10-28" transform="translate(0 0.390625)"/>
      </g>
     </g>
    </g>
    <g id="xtick_2">
     <g id="line2d_2">
      <g>
       <use xlink:href="#m1ff206cfa5" x="130.095455" y="312.506406" style="stroke: #000000; stroke-width: 0.8"/>
      </g>
     </g>
     <g id="text_2">
      <!-- $\mathdefault{1}$ -->
      <g transform="translate(127.095455 327.967344) scale(0.12 -0.12)">
       <defs>
        <path id="Cmr10-64" d="M 594 0 
L 594 225 
Q 1394 225 1394 428 
L 1394 3788 
Q 1063 3628 556 3628 
L 556 3853 
Q 1341 3853 1741 4263 
L 1831 4263 
Q 1853 4263 1873 4245 
Q 1894 4228 1894 4206 
L 1894 428 
Q 1894 225 2694 225 
L 2694 0 
L 594 0 
z
" transform="scale(0.015625)"/>
       </defs>
       <use xlink:href="#Cmr10-64" transform="translate(0 0.390625)"/>
      </g>
     </g>
    </g>
    <g id="xtick_3">
     <g id="line2d_3">
      <g>
       <use xlink:href="#m1ff206cfa5" x="179.163636" y="312.506406" style="stroke: #000000; stroke-width: 0.8"/>
      </g>
     </g>
     <g id="text_3">
      <!-- $\mathdefault{2}$ -->
      <g transform="translate(176.163636 327.967344) scale(0.12 -0.12)">
       <defs>
        <path id="Cmr10-31" d="M 319 0 
L 319 172 
Q 319 188 331 206 
L 1325 1306 
Q 1550 1550 1690 1715 
Q 1831 1881 1968 2097 
Q 2106 2313 2186 2536 
Q 2266 2759 2266 3009 
Q 2266 3272 2169 3511 
Q 2072 3750 1880 3894 
Q 1688 4038 1416 4038 
Q 1138 4038 916 3870 
Q 694 3703 603 3438 
Q 628 3444 672 3444 
Q 816 3444 917 3347 
Q 1019 3250 1019 3097 
Q 1019 2950 917 2848 
Q 816 2747 672 2747 
Q 522 2747 420 2851 
Q 319 2956 319 3097 
Q 319 3338 409 3548 
Q 500 3759 670 3923 
Q 841 4088 1055 4175 
Q 1269 4263 1509 4263 
Q 1875 4263 2190 4108 
Q 2506 3953 2690 3670 
Q 2875 3388 2875 3009 
Q 2875 2731 2753 2481 
Q 2631 2231 2440 2026 
Q 2250 1822 1953 1562 
Q 1656 1303 1563 1216 
L 838 519 
L 1453 519 
Q 1906 519 2211 526 
Q 2516 534 2534 550 
Q 2609 631 2688 1141 
L 2875 1141 
L 2694 0 
L 319 0 
z
" transform="scale(0.015625)"/>
       </defs>
       <use xlink:href="#Cmr10-31" transform="translate(0 0.390625)"/>
      </g>
     </g>
    </g>
    <g id="xtick_4">
     <g id="line2d_4">
      <g>
       <use xlink:href="#m1ff206cfa5" x="228.231818" y="312.506406" style="stroke: #000000; stroke-width: 0.8"/>
      </g>
     </g>
     <g id="text_4">
      <!-- $\mathdefault{3}$ -->
      <g transform="translate(225.231818 327.967344) scale(0.12 -0.12)">
       <defs>
        <path id="Cmr10-6e" d="M 609 494 
Q 759 275 1012 169 
Q 1266 63 1556 63 
Q 1928 63 2084 380 
Q 2241 697 2241 1100 
Q 2241 1281 2208 1462 
Q 2175 1644 2097 1800 
Q 2019 1956 1883 2050 
Q 1747 2144 1550 2144 
L 1125 2144 
Q 1069 2144 1069 2203 
L 1069 2259 
Q 1069 2309 1125 2309 
L 1478 2338 
Q 1703 2338 1851 2506 
Q 2000 2675 2069 2917 
Q 2138 3159 2138 3378 
Q 2138 3684 1994 3881 
Q 1850 4078 1556 4078 
Q 1313 4078 1091 3986 
Q 869 3894 738 3706 
Q 750 3709 759 3711 
Q 769 3713 781 3713 
Q 925 3713 1022 3613 
Q 1119 3513 1119 3372 
Q 1119 3234 1022 3134 
Q 925 3034 781 3034 
Q 641 3034 541 3134 
Q 441 3234 441 3372 
Q 441 3647 606 3850 
Q 772 4053 1033 4158 
Q 1294 4263 1556 4263 
Q 1750 4263 1965 4205 
Q 2181 4147 2356 4039 
Q 2531 3931 2642 3762 
Q 2753 3594 2753 3378 
Q 2753 3109 2633 2881 
Q 2513 2653 2303 2487 
Q 2094 2322 1844 2241 
Q 2122 2188 2372 2031 
Q 2622 1875 2773 1631 
Q 2925 1388 2925 1106 
Q 2925 753 2731 467 
Q 2538 181 2222 20 
Q 1906 -141 1556 -141 
Q 1256 -141 954 -26 
Q 653 88 461 316 
Q 269 544 269 863 
Q 269 1022 375 1128 
Q 481 1234 641 1234 
Q 744 1234 830 1186 
Q 916 1138 964 1050 
Q 1013 963 1013 863 
Q 1013 706 903 600 
Q 794 494 641 494 
L 609 494 
z
" transform="scale(0.015625)"/>
       </defs>
       <use xlink:href="#Cmr10-6e" transform="translate(0 0.390625)"/>
      </g>
     </g>
    </g>
    <g id="xtick_5">
     <g id="line2d_5">
      <g>
       <use xlink:href="#m1ff206cfa5" x="277.3" y="312.506406" style="stroke: #000000; stroke-width: 0.8"/>
      </g>
     </g>
     <g id="text_5">
      <!-- $\mathdefault{4}$ -->
      <g transform="translate(274.3 327.967344) scale(0.12 -0.12)">
       <defs>
        <path id="Cmr10-3b" d="M 178 1056 
L 178 1281 
L 2156 4231 
Q 2178 4263 2222 4263 
L 2316 4263 
Q 2388 4263 2388 4191 
L 2388 1281 
L 3016 1281 
L 3016 1056 
L 2388 1056 
L 2388 428 
Q 2388 297 2575 261 
Q 2763 225 3009 225 
L 3009 0 
L 1247 0 
L 1247 225 
Q 1494 225 1681 261 
Q 1869 297 1869 428 
L 1869 1056 
L 178 1056 
z
M 391 1281 
L 1906 1281 
L 1906 3547 
L 391 1281 
z
" transform="scale(0.015625)"/>
       </defs>
       <use xlink:href="#Cmr10-3b" transform="translate(0 0.390625)"/>
      </g>
     </g>
    </g>
    <g id="xtick_6">
     <g id="line2d_6">
      <g>
       <use xlink:href="#m1ff206cfa5" x="326.368182" y="312.506406" style="stroke: #000000; stroke-width: 0.8"/>
      </g>
     </g>
     <g id="text_6">
      <!-- $\mathdefault{5}$ -->
      <g transform="translate(323.368182 327.967344) scale(0.12 -0.12)">
       <defs>
        <path id="Cmr10-78" d="M 556 728 
Q 622 541 758 387 
Q 894 234 1080 148 
Q 1266 63 1466 63 
Q 1928 63 2103 422 
Q 2278 781 2278 1294 
Q 2278 1516 2270 1667 
Q 2263 1819 2228 1959 
Q 2169 2184 2020 2353 
Q 1872 2522 1656 2522 
Q 1441 2522 1286 2456 
Q 1131 2391 1034 2303 
Q 938 2216 863 2119 
Q 788 2022 769 2016 
L 697 2016 
Q 681 2016 657 2036 
Q 634 2056 634 2075 
L 634 4213 
Q 634 4228 654 4245 
Q 675 4263 697 4263 
L 716 4263 
Q 1147 4056 1631 4056 
Q 2106 4056 2547 4263 
L 2566 4263 
Q 2588 4263 2606 4247 
Q 2625 4231 2625 4213 
L 2625 4153 
Q 2625 4122 2613 4122 
Q 2394 3831 2064 3668 
Q 1734 3506 1381 3506 
Q 1125 3506 856 3578 
L 856 2369 
Q 1069 2541 1236 2614 
Q 1403 2688 1663 2688 
Q 2016 2688 2295 2484 
Q 2575 2281 2725 1954 
Q 2875 1628 2875 1288 
Q 2875 903 2686 575 
Q 2497 247 2172 53 
Q 1847 -141 1466 -141 
Q 1150 -141 886 21 
Q 622 184 470 459 
Q 319 734 319 1044 
Q 319 1188 412 1278 
Q 506 1369 647 1369 
Q 788 1369 883 1276 
Q 978 1184 978 1044 
Q 978 906 883 811 
Q 788 716 647 716 
Q 625 716 597 720 
Q 569 725 556 728 
z
" transform="scale(0.015625)"/>
       </defs>
       <use xlink:href="#Cmr10-78" transform="translate(0 0.390625)"/>
      </g>
     </g>
    </g>
    <g id="xtick_7">
     <g id="line2d_7">
      <g>
       <use xlink:href="#m1ff206cfa5" x="375.436364" y="312.506406" style="stroke: #000000; stroke-width: 0.8"/>
      </g>
     </g>
     <g id="text_7">
      <!-- $\mathdefault{6}$ -->
      <g transform="translate(372.436364 327.967344) scale(0.12 -0.12)">
       <defs>
        <path id="Cmr10-45" d="M 1600 -141 
Q 1203 -141 937 70 
Q 672 281 526 617 
Q 381 953 325 1322 
Q 269 1691 269 2069 
Q 269 2575 466 3084 
Q 663 3594 1045 3928 
Q 1428 4263 1953 4263 
Q 2172 4263 2361 4180 
Q 2550 4097 2658 3936 
Q 2766 3775 2766 3547 
Q 2766 3416 2677 3327 
Q 2588 3238 2456 3238 
Q 2331 3238 2240 3328 
Q 2150 3419 2150 3547 
Q 2150 3672 2240 3762 
Q 2331 3853 2456 3853 
L 2491 3853 
Q 2409 3969 2261 4023 
Q 2113 4078 1953 4078 
Q 1759 4078 1595 3993 
Q 1431 3909 1300 3765 
Q 1169 3622 1081 3448 
Q 994 3275 945 3053 
Q 897 2831 884 2637 
Q 872 2444 872 2150 
Q 984 2413 1190 2580 
Q 1397 2747 1656 2747 
Q 1941 2747 2175 2631 
Q 2409 2516 2578 2311 
Q 2747 2106 2836 1843 
Q 2925 1581 2925 1313 
Q 2925 938 2758 598 
Q 2591 259 2287 59 
Q 1984 -141 1600 -141 
z
M 1600 63 
Q 1847 63 1997 175 
Q 2147 288 2217 473 
Q 2288 659 2305 848 
Q 2322 1038 2322 1313 
Q 2322 1675 2287 1931 
Q 2253 2188 2100 2383 
Q 1947 2578 1631 2578 
Q 1372 2578 1205 2403 
Q 1038 2228 961 1961 
Q 884 1694 884 1447 
Q 884 1363 891 1319 
Q 891 1309 889 1303 
Q 888 1297 884 1288 
Q 884 1013 940 731 
Q 997 450 1156 256 
Q 1316 63 1600 63 
z
" transform="scale(0.015625)"/>
       </defs>
       <use xlink:href="#Cmr10-45" transform="translate(0 0.390625)"/>
      </g>
     </g>
    </g>
    <g id="xtick_8">
     <g id="line2d_8">
      <g>
       <use xlink:href="#m1ff206cfa5" x="424.504545" y="312.506406" style="stroke: #000000; stroke-width: 0.8"/>
      </g>
     </g>
     <g id="text_8">
      <!-- $\mathdefault{7}$ -->
      <g transform="translate(421.504545 327.967344) scale(0.12 -0.12)">
       <defs>
        <path id="Cmr10-7f" d="M 1113 166 
Q 1113 522 1175 862 
Q 1238 1203 1358 1536 
Q 1478 1869 1648 2189 
Q 1819 2509 2022 2791 
L 2606 3603 
L 1875 3603 
Q 738 3603 703 3572 
Q 619 3469 544 2981 
L 359 2981 
L 569 4325 
L 756 4325 
L 756 4306 
Q 756 4191 1147 4156 
Q 1538 4122 1913 4122 
L 3103 4122 
L 3103 3956 
Q 3103 3950 3101 3947 
Q 3100 3944 3097 3938 
L 2216 2700 
Q 1891 2219 1809 1631 
Q 1728 1044 1728 166 
Q 1728 41 1637 -50 
Q 1547 -141 1422 -141 
Q 1294 -141 1203 -50 
Q 1113 41 1113 166 
z
" transform="scale(0.015625)"/>
       </defs>
       <use xlink:href="#Cmr10-7f" transform="translate(0 0.421875)"/>
      </g>
     </g>
    </g>
    <g id="xtick_9">
     <g id="line2d_9">
      <g>
       <use xlink:href="#m1ff206cfa5" x="473.572727" y="312.506406" style="stroke: #000000; stroke-width: 0.8"/>
      </g>
     </g>
     <g id="text_9">
      <!-- $\mathdefault{8}$ -->
      <g transform="translate(470.572727 327.967344) scale(0.12 -0.12)">
       <defs>
        <path id="Cmr10-4d" d="M 269 972 
Q 269 1356 522 1651 
Q 775 1947 1172 2144 
L 934 2297 
Q 716 2441 578 2680 
Q 441 2919 441 3181 
Q 441 3488 602 3734 
Q 763 3981 1030 4122 
Q 1297 4263 1600 4263 
Q 1884 4263 2148 4147 
Q 2413 4031 2583 3815 
Q 2753 3600 2753 3303 
Q 2753 3088 2651 2903 
Q 2550 2719 2373 2572 
Q 2197 2425 1997 2322 
L 2363 2088 
Q 2616 1922 2770 1653 
Q 2925 1384 2925 1088 
Q 2925 741 2739 456 
Q 2553 172 2247 15 
Q 1941 -141 1600 -141 
Q 1269 -141 961 -6 
Q 653 128 461 383 
Q 269 638 269 972 
z
M 616 972 
Q 616 719 755 509 
Q 894 300 1122 181 
Q 1350 63 1600 63 
Q 1972 63 2275 280 
Q 2578 497 2578 856 
Q 2578 978 2529 1098 
Q 2481 1219 2395 1317 
Q 2309 1416 2203 1478 
L 1344 2034 
Q 1144 1928 976 1765 
Q 809 1603 712 1400 
Q 616 1197 616 972 
z
M 1056 2925 
L 1831 2425 
Q 2100 2581 2272 2803 
Q 2444 3025 2444 3303 
Q 2444 3519 2323 3698 
Q 2203 3878 2009 3978 
Q 1816 4078 1594 4078 
Q 1400 4078 1203 4003 
Q 1006 3928 878 3779 
Q 750 3631 750 3431 
Q 750 3131 1056 2925 
z
" transform="scale(0.015625)"/>
       </defs>
       <use xlink:href="#Cmr10-4d" transform="translate(0 0.390625)"/>
      </g>
     </g>
    </g>
    <g id="text_10">
     <!-- t [s] -->
     <g transform="translate(264.783203 345.69) scale(0.15 -0.15)">
      <defs>
       <path id="Cmr10-1c" d="M 653 769 
L 653 2534 
L 122 2534 
L 122 2700 
Q 541 2700 737 3090 
Q 934 3481 934 3938 
L 1119 3938 
L 1119 2759 
L 2022 2759 
L 2022 2534 
L 1119 2534 
L 1119 781 
Q 1119 516 1208 316 
Q 1297 116 1528 116 
Q 1747 116 1844 327 
Q 1941 538 1941 781 
L 1941 1159 
L 2125 1159 
L 2125 769 
Q 2125 569 2051 373 
Q 1978 178 1834 53 
Q 1691 -72 1484 -72 
Q 1100 -72 876 158 
Q 653 388 653 769 
z
" transform="scale(0.015625)"/>
       <path id="Cmr10-53" transform="scale(0.015625)"/>
       <path id="Cmr10-3e" d="M 756 -1600 
L 756 4800 
L 1631 4800 
L 1631 4544 
L 1013 4544 
L 1013 -1344 
L 1631 -1344 
L 1631 -1600 
L 756 -1600 
z
" transform="scale(0.015625)"/>
       <path id="Cmr10-52" d="M 213 -19 
L 213 1025 
Q 213 1075 269 1075 
L 347 1075 
Q 384 1075 397 1025 
Q 575 97 1259 97 
Q 1563 97 1767 234 
Q 1972 372 1972 659 
Q 1972 866 1812 1011 
Q 1653 1156 1434 1209 
L 1006 1294 
Q 791 1341 614 1437 
Q 438 1534 325 1695 
Q 213 1856 213 2069 
Q 213 2350 361 2529 
Q 509 2709 746 2789 
Q 984 2869 1259 2869 
Q 1588 2869 1831 2694 
L 2016 2853 
Q 2016 2869 2047 2869 
L 2094 2869 
Q 2113 2869 2128 2851 
Q 2144 2834 2144 2816 
L 2144 1978 
Q 2144 1919 2094 1919 
L 2016 1919 
Q 1959 1919 1959 1978 
Q 1959 2313 1773 2516 
Q 1588 2719 1253 2719 
Q 966 2719 755 2612 
Q 544 2506 544 2247 
Q 544 2069 695 1955 
Q 847 1841 1050 1791 
L 1484 1709 
Q 1703 1659 1892 1540 
Q 2081 1422 2192 1240 
Q 2303 1059 2303 831 
Q 2303 600 2223 429 
Q 2144 259 2001 146 
Q 1859 34 1665 -19 
Q 1472 -72 1259 -72 
Q 859 -72 575 197 
L 341 -56 
Q 341 -72 306 -72 
L 269 -72 
Q 213 -72 213 -19 
z
" transform="scale(0.015625)"/>
       <path id="Cmr10-48" d="M 141 -1600 
L 141 -1344 
L 763 -1344 
L 763 4544 
L 141 4544 
L 141 4800 
L 1019 4800 
L 1019 -1600 
L 141 -1600 
z
" transform="scale(0.015625)"/>
      </defs>
      <use xlink:href="#Cmr10-1c"/>
      <use xlink:href="#Cmr10-53" transform="translate(38.8125 0)"/>
      <use xlink:href="#Cmr10-3e" transform="translate(72.109375 0)"/>
      <use xlink:href="#Cmr10-52" transform="translate(99.796875 0)"/>
      <use xlink:href="#Cmr10-48" transform="translate(139.203125 0)"/>
     </g>
    </g>
   </g>
   <g id="matplotlib.axis_2">
    <g id="ytick_1">
     <g id="line2d_10">
      <defs>
       <path id="madef0a4c40" d="M 0 0 
L -3.5 0 
" style="stroke: #000000; stroke-width: 0.8"/>
      </defs>
      <g>
       <use xlink:href="#madef0a4c40" x="61.4" y="299.670661" style="stroke: #000000; stroke-width: 0.8"/>
      </g>
     </g>
     <g id="text_11">
      <!-- $\mathdefault{-2.0}$ -->
      <g transform="translate(29.68 303.901129) scale(0.12 -0.12)">
       <defs>
        <path id="Cmsy10-11" d="M 653 1472 
Q 600 1472 565 1512 
Q 531 1553 531 1600 
Q 531 1647 565 1687 
Q 600 1728 653 1728 
L 4325 1728 
Q 4375 1728 4408 1687 
Q 4441 1647 4441 1600 
Q 4441 1553 4408 1512 
Q 4375 1472 4325 1472 
L 653 1472 
z
" transform="scale(0.015625)"/>
        <path id="Cmr10-1e" d="M 538 353 
Q 538 497 644 600 
Q 750 703 891 703 
Q 978 703 1062 656 
Q 1147 609 1194 525 
Q 1241 441 1241 353 
Q 1241 213 1137 106 
Q 1034 0 891 0 
Q 750 0 644 106 
Q 538 213 538 353 
z
" transform="scale(0.015625)"/>
       </defs>
       <use xlink:href="#Cmsy10-11" transform="translate(0 0.390625)"/>
       <use xlink:href="#Cmr10-31" transform="translate(77.685547 0.390625)"/>
       <use xlink:href="#Cmr10-1e" transform="translate(127.685547 0.390625)"/>
       <use xlink:href="#Cmr10-28" transform="translate(155.371094 0.390625)"/>
      </g>
     </g>
    </g>
    <g id="ytick_2">
     <g id="line2d_11">
      <g>
       <use xlink:href="#madef0a4c40" x="61.4" y="267.581288" style="stroke: #000000; stroke-width: 0.8"/>
      </g>
     </g>
     <g id="text_12">
      <!-- $\mathdefault{-1.5}$ -->
      <g transform="translate(29.68 271.811757) scale(0.12 -0.12)">
       <use xlink:href="#Cmsy10-11" transform="translate(0 0.390625)"/>
       <use xlink:href="#Cmr10-64" transform="translate(77.685547 0.390625)"/>
       <use xlink:href="#Cmr10-1e" transform="translate(127.685547 0.390625)"/>
       <use xlink:href="#Cmr10-78" transform="translate(155.371094 0.390625)"/>
      </g>
     </g>
    </g>
    <g id="ytick_3">
     <g id="line2d_12">
      <g>
       <use xlink:href="#madef0a4c40" x="61.4" y="235.491916" style="stroke: #000000; stroke-width: 0.8"/>
      </g>
     </g>
     <g id="text_13">
      <!-- $\mathdefault{-1.0}$ -->
      <g transform="translate(29.68 239.722384) scale(0.12 -0.12)">
       <use xlink:href="#Cmsy10-11" transform="translate(0 0.390625)"/>
       <use xlink:href="#Cmr10-64" transform="translate(77.685547 0.390625)"/>
       <use xlink:href="#Cmr10-1e" transform="translate(127.685547 0.390625)"/>
       <use xlink:href="#Cmr10-28" transform="translate(155.371094 0.390625)"/>
      </g>
     </g>
    </g>
    <g id="ytick_4">
     <g id="line2d_13">
      <g>
       <use xlink:href="#madef0a4c40" x="61.4" y="203.402543" style="stroke: #000000; stroke-width: 0.8"/>
      </g>
     </g>
     <g id="text_14">
      <!-- $\mathdefault{-0.5}$ -->
      <g transform="translate(29.68 207.633012) scale(0.12 -0.12)">
       <use xlink:href="#Cmsy10-11" transform="translate(0 0.390625)"/>
       <use xlink:href="#Cmr10-28" transform="translate(77.685547 0.390625)"/>
       <use xlink:href="#Cmr10-1e" transform="translate(127.685547 0.390625)"/>
       <use xlink:href="#Cmr10-78" transform="translate(155.371094 0.390625)"/>
      </g>
     </g>
    </g>
    <g id="ytick_5">
     <g id="line2d_14">
      <g>
       <use xlink:href="#madef0a4c40" x="61.4" y="171.313171" style="stroke: #000000; stroke-width: 0.8"/>
      </g>
     </g>
     <g id="text_15">
      <!-- $\mathdefault{0.0}$ -->
      <g transform="translate(39.04 175.54364) scale(0.12 -0.12)">
       <use xlink:href="#Cmr10-28" transform="translate(0 0.390625)"/>
       <use xlink:href="#Cmr10-1e" transform="translate(50 0.390625)"/>
       <use xlink:href="#Cmr10-28" transform="translate(77.685547 0.390625)"/>
      </g>
     </g>
    </g>
    <g id="ytick_6">
     <g id="line2d_15">
      <g>
       <use xlink:href="#madef0a4c40" x="61.4" y="139.223798" style="stroke: #000000; stroke-width: 0.8"/>
      </g>
     </g>
     <g id="text_16">
      <!-- $\mathdefault{0.5}$ -->
      <g transform="translate(39.04 143.454267) scale(0.12 -0.12)">
       <use xlink:href="#Cmr10-28" transform="translate(0 0.390625)"/>
       <use xlink:href="#Cmr10-1e" transform="translate(50 0.390625)"/>
       <use xlink:href="#Cmr10-78" transform="translate(77.685547 0.390625)"/>
      </g>
     </g>
    </g>
    <g id="ytick_7">
     <g id="line2d_16">
      <g>
       <use xlink:href="#madef0a4c40" x="61.4" y="107.134426" style="stroke: #000000; stroke-width: 0.8"/>
      </g>
     </g>
     <g id="text_17">
      <!-- $\mathdefault{1.0}$ -->
      <g transform="translate(39.04 111.364895) scale(0.12 -0.12)">
       <use xlink:href="#Cmr10-64" transform="translate(0 0.390625)"/>
       <use xlink:href="#Cmr10-1e" transform="translate(50 0.390625)"/>
       <use xlink:href="#Cmr10-28" transform="translate(77.685547 0.390625)"/>
      </g>
     </g>
    </g>
    <g id="ytick_8">
     <g id="line2d_17">
      <g>
       <use xlink:href="#madef0a4c40" x="61.4" y="75.045054" style="stroke: #000000; stroke-width: 0.8"/>
      </g>
     </g>
     <g id="text_18">
      <!-- $\mathdefault{1.5}$ -->
      <g transform="translate(39.04 79.275522) scale(0.12 -0.12)">
       <use xlink:href="#Cmr10-64" transform="translate(0 0.390625)"/>
       <use xlink:href="#Cmr10-1e" transform="translate(50 0.390625)"/>
       <use xlink:href="#Cmr10-78" transform="translate(77.685547 0.390625)"/>
      </g>
     </g>
    </g>
    <g id="ytick_9">
     <g id="line2d_18">
      <g>
       <use xlink:href="#madef0a4c40" x="61.4" y="42.955681" style="stroke: #000000; stroke-width: 0.8"/>
      </g>
     </g>
     <g id="text_19">
      <!-- $\mathdefault{2.0}$ -->
      <g transform="translate(39.04 47.18615) scale(0.12 -0.12)">
       <use xlink:href="#Cmr10-31" transform="translate(0 0.390625)"/>
       <use xlink:href="#Cmr10-1e" transform="translate(50 0.390625)"/>
       <use xlink:href="#Cmr10-28" transform="translate(77.685547 0.390625)"/>
      </g>
     </g>
    </g>
    <g id="text_20">
     <!-- x [m] -->
     <g transform="translate(21.93 188.162422) rotate(-90) scale(0.15 -0.15)">
      <defs>
       <path id="Cmr10-2d" d="M 78 0 
L 78 225 
Q 322 225 537 320 
Q 753 416 903 603 
L 1484 1344 
L 728 2328 
Q 616 2469 483 2501 
Q 350 2534 109 2534 
L 109 2759 
L 1441 2759 
L 1441 2534 
Q 1356 2534 1282 2496 
Q 1209 2459 1209 2388 
Q 1209 2363 1228 2328 
L 1741 1663 
L 2125 2156 
Q 2203 2250 2203 2344 
Q 2203 2422 2151 2478 
Q 2100 2534 2016 2534 
L 2016 2759 
L 3194 2759 
L 3194 2534 
Q 2947 2534 2730 2439 
Q 2513 2344 2363 2156 
L 1856 1509 
L 2675 428 
Q 2797 288 2928 256 
Q 3059 225 3303 225 
L 3303 0 
L 1972 0 
L 1972 225 
Q 2050 225 2122 262 
Q 2194 300 2194 372 
Q 2194 400 2175 428 
L 1600 1191 
L 1141 603 
Q 1069 522 1069 416 
Q 1069 338 1122 281 
Q 1175 225 1247 225 
L 1247 0 
L 78 0 
z
" transform="scale(0.015625)"/>
       <path id="Cmr10-38" d="M 191 0 
L 191 225 
Q 409 225 550 259 
Q 691 294 691 428 
L 691 2175 
Q 691 2347 639 2423 
Q 588 2500 491 2517 
Q 394 2534 191 2534 
L 191 2759 
L 1119 2828 
L 1119 2203 
Q 1247 2478 1498 2653 
Q 1750 2828 2047 2828 
Q 2784 2828 2913 2228 
Q 3041 2497 3287 2662 
Q 3534 2828 3828 2828 
Q 4119 2828 4317 2734 
Q 4516 2641 4616 2448 
Q 4716 2256 4716 1966 
L 4716 428 
Q 4716 294 4858 259 
Q 5000 225 5216 225 
L 5216 0 
L 3750 0 
L 3750 225 
Q 3969 225 4109 259 
Q 4250 294 4250 428 
L 4250 1947 
Q 4250 2269 4159 2466 
Q 4069 2663 3788 2663 
Q 3419 2663 3178 2366 
Q 2938 2069 2938 1691 
L 2938 428 
Q 2938 294 3078 259 
Q 3219 225 3438 225 
L 3438 0 
L 1972 0 
L 1972 225 
Q 2191 225 2331 259 
Q 2472 294 2472 428 
L 2472 1947 
Q 2472 2259 2381 2461 
Q 2291 2663 2009 2663 
Q 1638 2663 1398 2366 
Q 1159 2069 1159 1691 
L 1159 428 
Q 1159 294 1300 259 
Q 1441 225 1656 225 
L 1656 0 
L 191 0 
z
" transform="scale(0.015625)"/>
      </defs>
      <use xlink:href="#Cmr10-2d"/>
      <use xlink:href="#Cmr10-53" transform="translate(52.6875 0)"/>
      <use xlink:href="#Cmr10-3e" transform="translate(85.984375 0)"/>
      <use xlink:href="#Cmr10-38" transform="translate(113.671875 0)"/>
      <use xlink:href="#Cmr10-48" transform="translate(196.96875 0)"/>
     </g>
    </g>
   </g>
   <g id="line2d_19">
    <path d="M 81.027273 299.670661 
L 82.990982 299.55198 
L 84.954691 299.195328 
L 86.9184 298.598864 
L 88.882109 297.759466 
L 90.845818 296.672649 
L 92.809527 295.332446 
L 94.773237 293.731236 
L 96.736946 291.859518 
L 98.897026 289.47417 
L 101.057106 286.728103 
L 103.217186 283.597426 
L 105.377266 280.052325 
L 107.537346 276.055312 
L 109.697426 271.558674 
L 111.857506 266.500643 
L 113.821215 261.346978 
L 115.784924 255.579853 
L 117.748633 249.0869 
L 119.515972 242.49211 
L 121.28331 235.011694 
L 122.854277 227.415028 
L 124.425244 218.639191 
L 125.799841 209.645578 
L 126.978066 200.589717 
L 128.156292 189.860986 
L 129.530888 174.982768 
L 131.690968 151.286592 
L 132.869194 140.794874 
L 134.24379 130.570459 
L 135.618386 121.927922 
L 137.189354 113.443694 
L 138.956692 105.207403 
L 140.72403 98.021547 
L 142.687739 90.999487 
L 144.651448 84.795657 
L 146.615158 79.270914 
L 148.775238 73.860104 
L 150.935318 69.054057 
L 153.095398 64.780591 
L 155.255478 60.984609 
L 157.415558 57.623209 
L 159.575638 54.662488 
L 161.735718 52.07538 
L 163.895798 49.840148 
L 166.055878 47.939323 
L 168.019587 46.489669 
L 169.983296 45.296414 
L 171.947005 44.352914 
L 173.910714 43.654074 
L 175.874424 43.196208 
L 177.838133 42.976939 
L 179.801842 42.995142 
L 181.765551 43.250908 
L 183.72926 43.745554 
L 185.692969 44.481652 
L 187.656678 45.463098 
L 189.620387 46.695213 
L 191.584097 48.184895 
L 193.547806 49.940815 
L 195.511515 51.973693 
L 197.671595 54.545489 
L 199.831675 57.489876 
L 201.991755 60.83367 
L 204.151835 64.610445 
L 206.311915 68.862667 
L 208.471995 73.644832 
L 210.435704 78.511716 
L 212.399413 83.946003 
L 214.363122 90.042732 
L 216.326832 96.934024 
L 218.09417 103.972417 
L 219.665137 111.065463 
L 221.236104 119.174448 
L 222.610701 127.371574 
L 223.985297 136.97708 
L 225.163523 146.750808 
L 226.341748 158.369548 
L 230.269166 199.822028 
L 231.643763 210.385054 
L 233.018359 219.269526 
L 234.589326 227.955077 
L 236.356665 236.358901 
L 238.124003 243.673281 
L 240.087712 250.808645 
L 242.051421 257.104833 
L 244.01513 262.707289 
L 246.17521 268.191376 
L 248.33529 273.06124 
L 250.49537 277.391397 
L 252.65545 281.238573 
L 254.81553 284.646853 
L 256.975611 287.651028 
L 259.135691 290.278845 
L 261.295771 292.552578 
L 263.455851 294.490132 
L 265.41956 295.971943 
L 267.383269 297.196419 
L 269.346978 298.170408 
L 271.310687 298.899188 
L 273.274396 299.386611 
L 275.238105 299.635213 
L 277.201815 299.646271 
L 279.165524 299.419842 
L 281.129233 298.954762 
L 283.092942 298.248617 
L 285.056651 297.29768 
L 287.02036 296.096811 
L 288.984069 294.639318 
L 290.947778 292.916759 
L 292.911488 290.918686 
L 295.071568 288.387226 
L 297.231648 285.485828 
L 299.391728 282.188334 
L 301.551808 278.462017 
L 303.711888 274.265544 
L 305.871968 269.545966 
L 307.835677 264.743746 
L 309.799386 259.38397 
L 311.763095 253.375146 
L 313.726804 246.59069 
L 315.494143 239.67209 
L 317.261481 231.780503 
L 318.832448 223.705227 
L 320.207044 215.547748 
L 321.581641 205.996956 
L 322.759866 196.287296 
L 323.938092 184.744521 
L 328.061881 141.546028 
L 329.436477 131.196034 
L 330.811074 122.46367 
L 332.382041 113.904497 
L 334.149379 105.605676 
L 335.916717 98.371747 
L 337.880427 91.307233 
L 339.844136 85.068749 
L 341.807845 79.514816 
L 343.967925 74.076458 
L 346.128005 69.246401 
L 348.288085 64.951592 
L 350.448165 61.136327 
L 352.608245 57.75726 
L 354.768325 54.780158 
L 356.928405 52.177697 
L 359.088485 49.927941 
L 361.248565 48.013256 
L 363.212274 46.551465 
L 365.175983 45.346423 
L 367.139693 44.391409 
L 369.103402 43.681262 
L 371.067111 43.21223 
L 373.03082 42.981878 
L 374.994529 42.989022 
L 376.958238 43.233699 
L 378.921947 43.717167 
L 380.885656 44.441939 
L 382.849366 45.411845 
L 384.813075 46.63214 
L 386.776784 48.109642 
L 388.740493 49.852936 
L 390.704202 51.872637 
L 392.864282 54.429158 
L 395.024362 57.35726 
L 397.184442 60.683507 
L 399.344522 64.441152 
L 401.504602 68.672227 
L 403.664682 73.430636 
L 405.628391 78.272959 
L 407.592101 83.678922 
L 409.55581 89.742202 
L 411.519519 96.592789 
L 413.286857 103.585469 
L 415.054195 111.572112 
L 416.625163 119.759454 
L 417.999759 128.048979 
L 419.374355 137.782262 
L 420.552581 147.705359 
L 421.730806 159.497896 
L 425.265483 197.338477 
L 426.640079 208.331227 
L 428.014676 217.521974 
L 429.585643 226.460099 
L 431.15661 234.177336 
L 432.923948 241.76214 
L 434.691287 248.43966 
L 436.654996 255.007467 
L 438.618705 260.836913 
L 440.778785 266.533823 
L 442.938865 271.588153 
L 445.098945 276.081526 
L 447.259025 280.075608 
L 449.419105 283.618039 
L 451.579185 286.746251 
L 453.739265 289.490017 
L 455.899345 291.873198 
L 458.059425 293.914975 
L 460.219505 295.630739 
L 462.183214 296.917972 
L 464.146923 297.953183 
L 466.110633 298.742019 
L 468.074342 299.288675 
L 470.038051 299.596003 
L 472.00176 299.665586 
L 473.572727 299.550357 
L 473.572727 299.550357 
" clip-path="url(#p82f5c71089)" style="fill: none; stroke: #1f77b4; stroke-width: 1.5; stroke-linecap: square"/>
   </g>
   <g id="line2d_20">
    <path d="M 81.027273 299.670661 
L 82.990982 299.554434 
L 84.954691 299.207236 
L 86.9184 298.62534 
L 88.882109 297.80787 
L 90.845818 296.74868 
L 92.809527 295.444288 
L 94.969608 293.715712 
L 96.933317 291.868998 
L 99.093397 289.521188 
L 101.253477 286.823462 
L 103.413557 283.754932 
L 105.573637 280.288401 
L 107.733717 276.389612 
L 109.893797 272.014572 
L 112.053877 267.109835 
L 114.213957 261.604052 
L 116.177666 255.996037 
L 118.141375 249.7155 
L 120.105084 242.625462 
L 121.872423 235.395734 
L 123.639761 227.141552 
L 125.210728 218.690559 
L 126.585324 210.15876 
L 127.959921 200.209335 
L 129.334517 188.469942 
L 131.298226 169.10529 
L 132.869194 154.602022 
L 134.24379 144.188089 
L 135.618386 135.570387 
L 136.992983 128.280726 
L 138.56395 121.155754 
L 140.134917 115.006457 
L 141.902256 108.997002 
L 143.669594 103.758954 
L 145.436932 99.158793 
L 147.400641 94.683676 
L 149.36435 90.785099 
L 151.328059 87.396776 
L 153.291769 84.465017 
L 155.255478 81.952337 
L 157.219187 79.826718 
L 158.986525 78.225985 
L 160.753863 76.907416 
L 162.521202 75.859726 
L 164.28854 75.075013 
L 166.055878 74.548061 
L 167.823216 74.275431 
L 169.590554 74.25268 
L 171.357893 74.468719 
L 173.125231 74.921353 
L 174.892569 75.613376 
L 176.659907 76.55011 
L 178.427245 77.737075 
L 180.194584 79.18186 
L 181.961922 80.894585 
L 183.925631 83.128889 
L 185.88934 85.731082 
L 187.853049 88.731168 
L 189.816758 92.16221 
L 191.780468 96.07215 
L 193.744177 100.517506 
L 195.707886 105.579954 
L 197.475224 110.749444 
L 199.242562 116.609885 
L 201.0099 123.312719 
L 202.580868 130.146935 
L 204.151835 138.020398 
L 205.722802 147.195612 
L 207.29377 157.874882 
L 211.810301 190.21212 
L 213.184897 197.810819 
L 214.559493 204.295882 
L 216.130461 210.627874 
L 217.701428 216.048145 
L 219.272395 220.736268 
L 221.039734 225.291532 
L 222.807072 229.205686 
L 224.57441 232.567496 
L 226.341748 235.444907 
L 228.109086 237.886546 
L 229.876425 239.928766 
L 231.643763 241.59825 
L 233.21473 242.788038 
L 234.785697 243.712075 
L 236.356665 244.378629 
L 237.927632 244.793465 
L 239.498599 244.960091 
L 241.069567 244.887481 
L 242.640534 244.587316 
L 244.211501 244.05838 
L 245.782469 243.296937 
L 247.353436 242.297471 
L 249.120774 240.878542 
L 250.888112 239.135161 
L 252.65545 237.049052 
L 254.422789 234.596623 
L 256.190127 231.745676 
L 257.957465 228.459401 
L 259.724803 224.687853 
L 261.492142 220.36594 
L 263.25948 215.403929 
L 265.026818 209.690914 
L 266.597785 203.862949 
L 268.168753 197.200592 
L 269.73972 189.595028 
L 271.703429 178.829404 
L 275.238105 159.086756 
L 276.809073 151.715859 
L 278.38004 145.417215 
L 279.951007 140.050206 
L 281.521975 135.46298 
L 283.092942 131.531234 
L 284.663909 128.160066 
L 286.234877 125.278062 
L 287.805844 122.831368 
L 289.376811 120.779156 
L 290.947778 119.090387 
L 292.518746 117.741554 
L 293.893342 116.825861 
L 295.267939 116.148312 
L 296.642535 115.703725 
L 298.017131 115.486573 
L 299.391728 115.491222 
L 300.766324 115.700524 
L 302.14092 116.113209 
L 303.515517 116.731129 
L 305.086484 117.694788 
L 306.657451 118.941787 
L 308.228419 120.484233 
L 309.799386 122.337829 
L 311.370353 124.522537 
L 312.941321 127.063418 
L 314.512288 129.991665 
L 316.279626 133.797253 
L 317.850593 137.686485 
L 319.421561 142.109642 
L 321.188899 147.793847 
L 322.956237 154.281227 
L 325.116317 163.206979 
L 329.632848 182.31782 
L 331.400186 188.605212 
L 332.971154 193.42125 
L 334.542121 197.560761 
L 336.113088 201.094139 
L 337.684056 204.08792 
L 339.255023 206.597804 
L 340.82599 208.668158 
L 342.200587 210.145961 
L 343.575183 211.332145 
L 344.949779 212.24022 
L 346.324376 212.87816 
L 347.698972 213.254448 
L 349.073569 213.373807 
L 350.448165 213.255063 
L 351.822761 212.915931 
L 353.197358 212.353772 
L 354.571954 211.562613 
L 355.946551 210.538702 
L 357.517518 209.073386 
L 359.088485 207.279137 
L 360.659452 205.138206 
L 362.23042 202.629501 
L 363.801387 199.729238 
L 365.568725 195.968276 
L 367.336063 191.653595 
L 369.299773 186.205526 
L 371.459853 179.530896 
L 377.154609 161.546431 
L 378.921947 156.861798 
L 380.492915 153.235036 
L 382.063882 150.110246 
L 383.634849 147.463807 
L 385.205817 145.26695 
L 386.580413 143.6921 
L 387.955009 142.42411 
L 389.329606 141.451077 
L 390.704202 140.764134 
L 391.882428 140.395763 
L 393.257024 140.220748 
L 394.63162 140.300574 
L 396.006217 140.60179 
L 397.380813 141.126605 
L 398.75541 141.878448 
L 400.130006 142.859503 
L 401.700973 144.26765 
L 403.271941 145.989168 
L 404.842908 148.031415 
L 406.610246 150.718807 
L 408.377584 153.81786 
L 410.341293 157.723334 
L 412.697744 162.94799 
L 419.963468 179.569063 
L 421.927177 183.256591 
L 423.694515 186.092432 
L 425.265483 188.216076 
L 426.83645 189.966193 
L 428.211046 191.196555 
L 429.585643 192.14992 
L 430.960239 192.831316 
L 432.334836 193.245612 
L 433.709432 193.395209 
L 435.280399 193.280504 
L 436.851367 192.90836 
L 438.422334 192.278653 
L 439.993301 191.391796 
L 441.564268 190.249143 
L 443.331607 188.661831 
L 445.098945 186.764787 
L 447.062654 184.31485 
L 449.222734 181.255325 
L 452.168298 176.636788 
L 458.059425 167.276461 
L 460.219505 164.310917 
L 462.183214 161.995528 
L 463.950553 160.261664 
L 465.52152 159.017268 
L 467.092487 158.060398 
L 468.467084 157.46251 
L 469.84168 157.088769 
L 471.216276 156.939973 
L 472.787244 157.007023 
L 473.572727 157.110485 
L 473.572727 157.110485 
" clip-path="url(#p82f5c71089)" style="fill: none; stroke: #ff7f0e; stroke-width: 1.5; stroke-linecap: square"/>
   </g>
   <g id="line2d_21">
    <path d="M 81.027273 299.670661 
L 82.990982 299.560399 
L 84.954691 299.231076 
L 86.9184 298.679326 
L 88.882109 297.904609 
L 90.845818 296.901527 
L 92.809527 295.667354 
L 94.969608 294.033802 
L 97.129688 292.10285 
L 99.289768 289.862431 
L 101.449848 287.297554 
L 103.609928 284.389173 
L 105.770008 281.116198 
L 107.930088 277.451513 
L 110.090168 273.361252 
L 112.250248 268.802436 
L 114.410328 263.723334 
L 116.570408 258.055757 
L 118.730488 251.709183 
L 120.694197 245.247241 
L 122.657906 238.001667 
L 124.425244 230.664746 
L 126.192583 222.374202 
L 127.76355 214.011393 
L 129.334517 204.48916 
L 130.905485 193.617077 
L 133.458306 173.897245 
L 135.029274 162.65991 
L 136.40387 154.45221 
L 137.778467 147.667924 
L 139.153063 142.023505 
L 140.527659 137.261741 
L 141.902256 133.20284 
L 143.473223 129.267678 
L 145.04419 125.958267 
L 146.615158 123.183364 
L 148.186125 120.87796 
L 149.757092 118.994937 
L 151.131689 117.665585 
L 152.506285 116.617838 
L 153.880881 115.836868 
L 155.255478 115.313595 
L 156.630074 115.042251 
L 158.004671 115.015487 
L 159.575638 115.214526 
L 161.146605 115.645204 
L 162.717572 116.310293 
L 164.28854 117.214126 
L 165.859507 118.3627 
L 167.430474 119.763803 
L 169.197813 121.653577 
L 170.965151 123.893681 
L 172.732489 126.503378 
L 174.499827 129.507393 
L 176.267165 132.934256 
L 178.230875 137.277755 
L 180.194584 142.217964 
L 182.158293 147.777866 
L 184.318373 154.551761 
L 190.994984 176.16877 
L 192.565951 180.289734 
L 194.136918 183.822446 
L 195.511515 186.436091 
L 196.886111 188.626034 
L 198.260708 190.415191 
L 199.635304 191.822747 
L 200.813529 192.742501 
L 201.991755 193.405683 
L 203.16998 193.819556 
L 204.348206 193.987397 
L 205.919173 193.928156 
L 207.686511 193.648997 
L 209.45385 193.150378 
L 211.221188 192.436837 
L 213.184897 191.399486 
L 215.344977 189.974912 
L 217.505057 188.278477 
L 220.057879 185.974208 
L 223.199814 182.816256 
L 230.269166 175.586536 
L 232.625617 173.546195 
L 234.589326 172.114689 
L 236.356665 171.073749 
L 238.124003 170.291 
L 239.69497 169.825589 
L 241.265938 169.58428 
L 243.229647 169.547936 
L 473.572727 169.547936 
L 473.572727 169.547936 
" clip-path="url(#p82f5c71089)" style="fill: none; stroke: #2ca02c; stroke-width: 1.5; stroke-linecap: square"/>
   </g>
   <g id="patch_3">
    <path d="M 61.4 312.506406 
L 61.4 30.12 
" style="fill: none; stroke: #000000; stroke-width: 0.8; stroke-linejoin: miter; stroke-linecap: square"/>
   </g>
   <g id="patch_4">
    <path d="M 493.2 312.506406 
L 493.2 30.12 
" style="fill: none; stroke: #000000; stroke-width: 0.8; stroke-linejoin: miter; stroke-linecap: square"/>
   </g>
   <g id="patch_5">
    <path d="M 61.4 312.506406 
L 493.2 312.506406 
" style="fill: none; stroke: #000000; stroke-width: 0.8; stroke-linejoin: miter; stroke-linecap: square"/>
   </g>
   <g id="patch_6">
    <path d="M 61.4 30.12 
L 493.2 30.12 
" style="fill: none; stroke: #000000; stroke-width: 0.8; stroke-linejoin: miter; stroke-linecap: square"/>
   </g>
   <g id="text_21">
    <!-- Damping of oscillation by friction ($y=x^2$) -->
    <g transform="translate(137.8 24.12) scale(0.15 -0.15)">
     <defs>
      <path id="Cmr10-2a" d="M 213 0 
L 213 225 
Q 872 225 872 428 
L 872 3944 
Q 872 4147 213 4147 
L 213 4372 
L 2572 4372 
Q 3009 4372 3371 4183 
Q 3734 3994 3990 3678 
Q 4247 3363 4386 2963 
Q 4525 2563 4525 2144 
Q 4525 1738 4384 1355 
Q 4244 972 3980 664 
Q 3716 356 3355 178 
Q 2994 0 2572 0 
L 213 0 
z
M 1447 428 
Q 1447 291 1525 258 
Q 1603 225 1772 225 
L 2406 225 
Q 2734 225 3029 367 
Q 3325 509 3519 763 
Q 3722 1031 3790 1364 
Q 3859 1697 3859 2144 
Q 3859 2609 3790 2959 
Q 3722 3309 3519 3584 
Q 3328 3856 3034 4001 
Q 2741 4147 2406 4147 
L 1772 4147 
Q 1656 4147 1592 4137 
Q 1528 4128 1487 4083 
Q 1447 4038 1447 3944 
L 1447 428 
z
" transform="scale(0.015625)"/>
      <path id="Cmr10-73" d="M 256 628 
Q 256 1009 556 1248 
Q 856 1488 1276 1586 
Q 1697 1684 2075 1684 
L 2075 1947 
Q 2075 2131 1994 2304 
Q 1913 2478 1759 2589 
Q 1606 2700 1422 2700 
Q 997 2700 775 2509 
Q 897 2509 976 2417 
Q 1056 2325 1056 2203 
Q 1056 2075 965 1984 
Q 875 1894 750 1894 
Q 622 1894 531 1984 
Q 441 2075 441 2203 
Q 441 2541 747 2705 
Q 1053 2869 1422 2869 
Q 1681 2869 1943 2758 
Q 2206 2647 2373 2440 
Q 2541 2234 2541 1959 
L 2541 519 
Q 2541 394 2594 289 
Q 2647 184 2759 184 
Q 2866 184 2917 290 
Q 2969 397 2969 519 
L 2969 928 
L 3156 928 
L 3156 519 
Q 3156 375 3081 245 
Q 3006 116 2879 39 
Q 2753 -38 2606 -38 
Q 2419 -38 2283 107 
Q 2147 253 2131 453 
Q 2013 213 1781 70 
Q 1550 -72 1288 -72 
Q 1044 -72 808 0 
Q 572 72 414 226 
Q 256 381 256 628 
z
M 775 628 
Q 775 403 940 250 
Q 1106 97 1331 97 
Q 1538 97 1706 200 
Q 1875 303 1975 481 
Q 2075 659 2075 856 
L 2075 1522 
Q 1784 1522 1479 1426 
Q 1175 1331 975 1128 
Q 775 925 775 628 
z
" transform="scale(0.015625)"/>
      <path id="Cmr10-7d" d="M 166 -1241 
L 166 -1019 
Q 384 -1019 525 -981 
Q 666 -944 666 -813 
L 666 2272 
Q 666 2447 541 2490 
Q 416 2534 166 2534 
L 166 2759 
L 1113 2828 
L 1113 2431 
Q 1288 2625 1520 2726 
Q 1753 2828 2016 2828 
Q 2394 2828 2697 2623 
Q 3000 2419 3170 2086 
Q 3341 1753 3341 1381 
Q 3341 994 3152 659 
Q 2963 325 2636 126 
Q 2309 -72 1919 -72 
Q 1453 -72 1131 306 
L 1131 -813 
Q 1131 -944 1273 -981 
Q 1416 -1019 1631 -1019 
L 1631 -1241 
L 166 -1241 
z
M 1131 622 
Q 1244 394 1444 245 
Q 1644 97 1881 97 
Q 2103 97 2273 215 
Q 2444 334 2559 534 
Q 2675 734 2729 954 
Q 2784 1175 2784 1381 
Q 2784 1638 2692 1936 
Q 2600 2234 2411 2439 
Q 2222 2644 1953 2644 
Q 1694 2644 1476 2511 
Q 1259 2378 1131 2150 
L 1131 622 
z
" transform="scale(0.015625)"/>
      <path id="Cmr10-24" d="M 197 0 
L 197 225 
Q 416 225 556 259 
Q 697 294 697 428 
L 697 2175 
Q 697 2422 601 2478 
Q 506 2534 225 2534 
L 225 2759 
L 1147 2828 
L 1147 428 
Q 1147 294 1269 259 
Q 1391 225 1594 225 
L 1594 0 
L 197 0 
z
M 469 3928 
Q 469 4069 575 4175 
Q 681 4281 819 4281 
Q 909 4281 993 4234 
Q 1078 4188 1125 4103 
Q 1172 4019 1172 3928 
Q 1172 3791 1065 3684 
Q 959 3578 819 3578 
Q 681 3578 575 3684 
Q 469 3791 469 3928 
z
" transform="scale(0.015625)"/>
      <path id="Cmr10-74" d="M 191 0 
L 191 225 
Q 409 225 550 259 
Q 691 294 691 428 
L 691 2175 
Q 691 2347 639 2423 
Q 588 2500 491 2517 
Q 394 2534 191 2534 
L 191 2759 
L 1119 2828 
L 1119 2203 
Q 1247 2478 1498 2653 
Q 1750 2828 2047 2828 
Q 2491 2828 2714 2615 
Q 2938 2403 2938 1966 
L 2938 428 
Q 2938 294 3078 259 
Q 3219 225 3438 225 
L 3438 0 
L 1972 0 
L 1972 225 
Q 2191 225 2331 259 
Q 2472 294 2472 428 
L 2472 1947 
Q 2472 2259 2381 2461 
Q 2291 2663 2009 2663 
Q 1638 2663 1398 2366 
Q 1159 2069 1159 1691 
L 1159 428 
Q 1159 294 1300 259 
Q 1441 225 1656 225 
L 1656 0 
L 191 0 
z
" transform="scale(0.015625)"/>
      <path id="Cmr10-1b" d="M 178 -500 
Q 178 -272 343 -101 
Q 509 69 738 141 
Q 609 238 542 384 
Q 475 531 475 697 
Q 475 997 666 1228 
Q 372 1516 372 1888 
Q 372 2088 458 2263 
Q 544 2438 697 2566 
Q 850 2694 1037 2761 
Q 1225 2828 1422 2828 
Q 1803 2828 2106 2606 
Q 2238 2747 2417 2823 
Q 2597 2900 2791 2900 
Q 2928 2900 3015 2801 
Q 3103 2703 3103 2566 
Q 3103 2488 3043 2428 
Q 2984 2369 2906 2369 
Q 2825 2369 2765 2428 
Q 2706 2488 2706 2566 
Q 2706 2684 2784 2731 
Q 2453 2731 2216 2503 
Q 2331 2388 2401 2220 
Q 2472 2053 2472 1888 
Q 2472 1616 2322 1398 
Q 2172 1181 1926 1061 
Q 1681 941 1422 941 
Q 1072 941 781 1131 
Q 691 1006 691 850 
Q 691 681 802 554 
Q 913 428 1081 428 
L 1606 428 
Q 1988 428 2294 359 
Q 2600 291 2808 84 
Q 3016 -122 3016 -500 
Q 3016 -781 2778 -967 
Q 2541 -1153 2211 -1236 
Q 1881 -1319 1600 -1319 
Q 1316 -1319 984 -1236 
Q 653 -1153 415 -967 
Q 178 -781 178 -500 
z
M 538 -500 
Q 538 -716 713 -861 
Q 888 -1006 1134 -1076 
Q 1381 -1147 1600 -1147 
Q 1816 -1147 2062 -1076 
Q 2309 -1006 2482 -861 
Q 2656 -716 2656 -500 
Q 2656 -166 2350 -67 
Q 2044 31 1606 31 
L 1081 31 
Q 934 31 811 -39 
Q 688 -109 613 -236 
Q 538 -363 538 -500 
z
M 1422 1113 
Q 1966 1113 1966 1888 
Q 1966 2222 1850 2439 
Q 1734 2656 1422 2656 
Q 1109 2656 993 2439 
Q 878 2222 878 1888 
Q 878 1675 922 1503 
Q 966 1331 1084 1222 
Q 1203 1113 1422 1113 
z
" transform="scale(0.015625)"/>
      <path id="Cmr10-42" d="M 1600 -72 
Q 1216 -72 887 123 
Q 559 319 368 647 
Q 178 975 178 1363 
Q 178 1656 283 1928 
Q 388 2200 583 2414 
Q 778 2628 1037 2748 
Q 1297 2869 1600 2869 
Q 1994 2869 2317 2661 
Q 2641 2453 2828 2104 
Q 3016 1756 3016 1363 
Q 3016 978 2825 648 
Q 2634 319 2307 123 
Q 1981 -72 1600 -72 
z
M 1600 116 
Q 2113 116 2284 487 
Q 2456 859 2456 1434 
Q 2456 1756 2422 1967 
Q 2388 2178 2272 2350 
Q 2200 2456 2089 2536 
Q 1978 2616 1854 2658 
Q 1731 2700 1600 2700 
Q 1400 2700 1220 2609 
Q 1041 2519 922 2350 
Q 803 2169 770 1951 
Q 738 1734 738 1434 
Q 738 1075 800 789 
Q 863 503 1052 309 
Q 1241 116 1600 116 
z
" transform="scale(0.015625)"/>
      <path id="Cmr10-50" d="M 206 0 
L 206 225 
Q 422 225 562 259 
Q 703 294 703 428 
L 703 2534 
L 213 2534 
L 213 2759 
L 703 2759 
L 703 3525 
Q 703 3731 789 3911 
Q 875 4091 1020 4225 
Q 1166 4359 1355 4436 
Q 1544 4513 1747 4513 
Q 1963 4513 2136 4384 
Q 2309 4256 2309 4044 
Q 2309 3922 2226 3839 
Q 2144 3756 2022 3756 
Q 1900 3756 1814 3839 
Q 1728 3922 1728 4044 
Q 1728 4244 1900 4313 
Q 1797 4347 1716 4347 
Q 1528 4347 1395 4214 
Q 1263 4081 1197 3890 
Q 1131 3700 1131 3513 
L 1131 2759 
L 1869 2759 
L 1869 2534 
L 1153 2534 
L 1153 428 
Q 1153 297 1340 261 
Q 1528 225 1772 225 
L 1772 0 
L 206 0 
z
" transform="scale(0.015625)"/>
      <path id="Cmr10-7b" d="M 1594 -72 
Q 1206 -72 890 129 
Q 575 331 394 667 
Q 213 1003 213 1381 
Q 213 1759 392 2106 
Q 572 2453 889 2661 
Q 1206 2869 1594 2869 
Q 1969 2869 2276 2722 
Q 2584 2575 2584 2241 
Q 2584 2116 2495 2023 
Q 2406 1931 2278 1931 
Q 2150 1931 2061 2023 
Q 1972 2116 1972 2241 
Q 1972 2353 2044 2436 
Q 2116 2519 2222 2541 
Q 2000 2681 1600 2681 
Q 1294 2681 1106 2478 
Q 919 2275 844 1975 
Q 769 1675 769 1381 
Q 769 1072 861 783 
Q 953 494 1158 305 
Q 1363 116 1672 116 
Q 1975 116 2187 302 
Q 2400 488 2478 788 
Q 2478 825 2528 825 
L 2606 825 
Q 2625 825 2640 808 
Q 2656 791 2656 769 
L 2656 750 
Q 2559 372 2271 150 
Q 1984 -72 1594 -72 
z
" transform="scale(0.015625)"/>
      <path id="Cmr10-6a" d="M 197 0 
L 197 225 
Q 416 225 556 259 
Q 697 294 697 428 
L 697 3788 
Q 697 3959 645 4036 
Q 594 4113 497 4130 
Q 400 4147 197 4147 
L 197 4372 
L 1147 4441 
L 1147 428 
Q 1147 294 1287 259 
Q 1428 225 1644 225 
L 1644 0 
L 197 0 
z
" transform="scale(0.015625)"/>
      <path id="Cmr10-41" d="M 666 0 
L 666 3788 
Q 666 3959 614 4036 
Q 563 4113 466 4130 
Q 369 4147 166 4147 
L 166 4372 
L 1113 4441 
L 1113 2438 
Q 1219 2556 1361 2645 
Q 1503 2734 1665 2781 
Q 1828 2828 1997 2828 
Q 2284 2828 2529 2712 
Q 2775 2597 2956 2394 
Q 3138 2191 3239 1927 
Q 3341 1663 3341 1381 
Q 3341 994 3152 659 
Q 2963 325 2636 126 
Q 2309 -72 1919 -72 
Q 1675 -72 1447 53 
Q 1219 178 1069 384 
L 850 0 
L 666 0 
z
M 1131 628 
Q 1238 394 1438 245 
Q 1638 97 1881 97 
Q 2213 97 2417 287 
Q 2622 478 2703 768 
Q 2784 1059 2784 1381 
Q 2784 1922 2644 2203 
Q 2581 2328 2473 2434 
Q 2366 2541 2233 2602 
Q 2100 2663 1953 2663 
Q 1697 2663 1478 2527 
Q 1259 2391 1131 2163 
L 1131 628 
z
" transform="scale(0.015625)"/>
      <path id="Cmr10-6b" d="M 441 -1050 
Q 563 -1147 709 -1147 
Q 1113 -1147 1369 -538 
L 1588 0 
L 628 2350 
Q 569 2469 447 2501 
Q 325 2534 122 2534 
L 122 2759 
L 1466 2759 
L 1466 2534 
Q 1113 2534 1113 2381 
Q 1113 2356 1119 2344 
L 1831 594 
L 2472 2169 
Q 2491 2219 2491 2278 
Q 2491 2356 2448 2414 
Q 2406 2472 2339 2503 
Q 2272 2534 2188 2534 
L 2188 2759 
L 3250 2759 
L 3250 2534 
Q 3053 2534 2904 2443 
Q 2756 2353 2675 2175 
L 1569 -538 
Q 1481 -744 1364 -917 
Q 1247 -1091 1078 -1202 
Q 909 -1313 709 -1313 
Q 475 -1313 298 -1158 
Q 122 -1003 122 -775 
Q 122 -656 203 -575 
Q 284 -494 403 -494 
Q 484 -494 548 -530 
Q 613 -566 648 -628 
Q 684 -691 684 -775 
Q 684 -878 615 -959 
Q 547 -1041 441 -1050 
z
" transform="scale(0.015625)"/>
      <path id="Cmr10-84" d="M 166 0 
L 166 225 
Q 384 225 525 259 
Q 666 294 666 428 
L 666 2175 
Q 666 2347 614 2423 
Q 563 2500 466 2517 
Q 369 2534 166 2534 
L 166 2759 
L 1081 2828 
L 1081 2203 
Q 1184 2481 1375 2654 
Q 1566 2828 1838 2828 
Q 2028 2828 2178 2715 
Q 2328 2603 2328 2419 
Q 2328 2303 2245 2217 
Q 2163 2131 2041 2131 
Q 1922 2131 1837 2215 
Q 1753 2300 1753 2419 
Q 1753 2591 1875 2663 
L 1838 2663 
Q 1578 2663 1414 2475 
Q 1250 2288 1181 2009 
Q 1113 1731 1113 1478 
L 1113 428 
Q 1113 225 1734 225 
L 1734 0 
L 166 0 
z
" transform="scale(0.015625)"/>
      <path id="Cmr10-77" d="M 1984 -1588 
Q 1628 -1306 1370 -942 
Q 1113 -578 948 -165 
Q 784 247 703 697 
Q 622 1147 622 1600 
Q 622 2059 703 2509 
Q 784 2959 951 3375 
Q 1119 3791 1378 4153 
Q 1638 4516 1984 4788 
Q 1984 4800 2016 4800 
L 2075 4800 
Q 2094 4800 2109 4783 
Q 2125 4766 2125 4744 
Q 2125 4716 2113 4703 
Q 1800 4397 1592 4047 
Q 1384 3697 1257 3301 
Q 1131 2906 1075 2482 
Q 1019 2059 1019 1600 
Q 1019 -434 2106 -1491 
Q 2125 -1509 2125 -1544 
Q 2125 -1559 2108 -1579 
Q 2091 -1600 2075 -1600 
L 2016 -1600 
Q 1984 -1600 1984 -1588 
z
" transform="scale(0.015625)"/>
      <path id="Cmmi10-72" d="M 538 -916 
Q 672 -1147 1006 -1147 
Q 1309 -1147 1531 -934 
Q 1753 -722 1889 -420 
Q 2025 -119 2100 197 
Q 1816 -72 1484 -72 
Q 1231 -72 1053 15 
Q 875 103 776 276 
Q 678 450 678 697 
Q 678 906 734 1126 
Q 791 1347 892 1617 
Q 994 1888 1069 2088 
Q 1153 2322 1153 2472 
Q 1153 2663 1013 2663 
Q 759 2663 595 2402 
Q 431 2141 353 1819 
Q 341 1778 300 1778 
L 225 1778 
Q 172 1778 172 1838 
L 172 1856 
Q 275 2238 487 2533 
Q 700 2828 1025 2828 
Q 1253 2828 1411 2678 
Q 1569 2528 1569 2297 
Q 1569 2178 1516 2047 
Q 1488 1969 1388 1706 
Q 1288 1444 1234 1272 
Q 1181 1100 1147 934 
Q 1113 769 1113 603 
Q 1113 391 1203 244 
Q 1294 97 1491 97 
Q 1888 97 2203 581 
L 2688 2553 
Q 2709 2638 2787 2698 
Q 2866 2759 2956 2759 
Q 3034 2759 3092 2709 
Q 3150 2659 3150 2578 
Q 3150 2541 3144 2528 
L 2509 -19 
Q 2425 -347 2200 -647 
Q 1975 -947 1658 -1130 
Q 1341 -1313 997 -1313 
Q 831 -1313 668 -1248 
Q 506 -1184 406 -1056 
Q 306 -928 306 -756 
Q 306 -581 409 -453 
Q 513 -325 684 -325 
Q 788 -325 858 -389 
Q 928 -453 928 -556 
Q 928 -703 818 -812 
Q 709 -922 563 -922 
Q 556 -919 550 -917 
Q 544 -916 538 -916 
z
" transform="scale(0.015625)"/>
      <path id="Cmr10-29" d="M 481 850 
Q 428 850 393 890 
Q 359 931 359 978 
Q 359 1031 393 1068 
Q 428 1106 481 1106 
L 4500 1106 
Q 4547 1106 4581 1068 
Q 4616 1031 4616 978 
Q 4616 931 4581 890 
Q 4547 850 4500 850 
L 481 850 
z
M 481 2094 
Q 428 2094 393 2131 
Q 359 2169 359 2222 
Q 359 2269 393 2309 
Q 428 2350 481 2350 
L 4500 2350 
Q 4547 2350 4581 2309 
Q 4616 2269 4616 2222 
Q 4616 2169 4581 2131 
Q 4547 2094 4500 2094 
L 481 2094 
z
" transform="scale(0.015625)"/>
      <path id="Cmmi10-3f" d="M 500 184 
Q 613 97 819 97 
Q 1019 97 1172 289 
Q 1325 481 1381 709 
L 1672 1844 
Q 1741 2153 1741 2266 
Q 1741 2425 1652 2544 
Q 1563 2663 1403 2663 
Q 1200 2663 1022 2536 
Q 844 2409 722 2214 
Q 600 2019 550 1819 
Q 538 1778 500 1778 
L 422 1778 
Q 372 1778 372 1838 
L 372 1856 
Q 434 2094 584 2320 
Q 734 2547 951 2687 
Q 1169 2828 1416 2828 
Q 1650 2828 1839 2703 
Q 2028 2578 2106 2363 
Q 2216 2559 2386 2693 
Q 2556 2828 2759 2828 
Q 2897 2828 3040 2779 
Q 3184 2731 3275 2631 
Q 3366 2531 3366 2381 
Q 3366 2219 3261 2101 
Q 3156 1984 2994 1984 
Q 2891 1984 2822 2050 
Q 2753 2116 2753 2216 
Q 2753 2350 2845 2451 
Q 2938 2553 3066 2572 
Q 2950 2663 2747 2663 
Q 2541 2663 2389 2472 
Q 2238 2281 2175 2047 
L 1894 916 
Q 1825 659 1825 494 
Q 1825 331 1917 214 
Q 2009 97 2163 97 
Q 2463 97 2698 361 
Q 2934 625 3009 941 
Q 3022 978 3059 978 
L 3138 978 
Q 3163 978 3178 961 
Q 3194 944 3194 922 
Q 3194 916 3188 903 
Q 3097 522 2806 225 
Q 2516 -72 2150 -72 
Q 1916 -72 1727 54 
Q 1538 181 1459 397 
Q 1359 209 1182 68 
Q 1006 -72 806 -72 
Q 669 -72 523 -23 
Q 378 25 287 125 
Q 197 225 197 378 
Q 197 528 301 651 
Q 406 775 563 775 
Q 669 775 741 711 
Q 813 647 813 544 
Q 813 409 723 309 
Q 634 209 500 184 
z
" transform="scale(0.015625)"/>
      <path id="Cmr10-44" d="M 416 -1600 
Q 359 -1600 359 -1544 
Q 359 -1516 372 -1503 
Q 1466 -434 1466 1600 
Q 1466 3634 384 4691 
Q 359 4706 359 4744 
Q 359 4766 376 4783 
Q 394 4800 416 4800 
L 475 4800 
Q 494 4800 506 4788 
Q 966 4425 1272 3906 
Q 1578 3388 1720 2800 
Q 1863 2213 1863 1600 
Q 1863 1147 1786 708 
Q 1709 269 1542 -157 
Q 1375 -584 1119 -945 
Q 863 -1306 506 -1588 
Q 494 -1600 475 -1600 
L 416 -1600 
z
" transform="scale(0.015625)"/>
     </defs>
     <use xlink:href="#Cmr10-2a" transform="translate(0 0.084203)"/>
     <use xlink:href="#Cmr10-73" transform="translate(76.318359 0.084203)"/>
     <use xlink:href="#Cmr10-38" transform="translate(126.318359 0.084203)"/>
     <use xlink:href="#Cmr10-7d" transform="translate(209.619141 0.084203)"/>
     <use xlink:href="#Cmr10-24" transform="translate(265.136719 0.084203)"/>
     <use xlink:href="#Cmr10-74" transform="translate(292.822266 0.084203)"/>
     <use xlink:href="#Cmr10-1b" transform="translate(348.339844 0.084203)"/>
     <use xlink:href="#Cmr10-53" transform="translate(398.339844 0.084203)"/>
     <use xlink:href="#Cmr10-42" transform="translate(431.640625 0.084203)"/>
     <use xlink:href="#Cmr10-50" transform="translate(481.640625 0.084203)"/>
     <use xlink:href="#Cmr10-53" transform="translate(512.158203 0.084203)"/>
     <use xlink:href="#Cmr10-42" transform="translate(545.458984 0.084203)"/>
     <use xlink:href="#Cmr10-52" transform="translate(595.458984 0.084203)"/>
     <use xlink:href="#Cmr10-7b" transform="translate(634.863281 0.084203)"/>
     <use xlink:href="#Cmr10-24" transform="translate(679.248047 0.084203)"/>
     <use xlink:href="#Cmr10-6a" transform="translate(706.933594 0.084203)"/>
     <use xlink:href="#Cmr10-6a" transform="translate(734.619141 0.084203)"/>
     <use xlink:href="#Cmr10-73" transform="translate(762.304688 0.084203)"/>
     <use xlink:href="#Cmr10-1c" transform="translate(812.304688 0.084203)"/>
     <use xlink:href="#Cmr10-24" transform="translate(851.123047 0.084203)"/>
     <use xlink:href="#Cmr10-42" transform="translate(878.808594 0.084203)"/>
     <use xlink:href="#Cmr10-74" transform="translate(928.808594 0.084203)"/>
     <use xlink:href="#Cmr10-53" transform="translate(984.326172 0.084203)"/>
     <use xlink:href="#Cmr10-41" transform="translate(1017.626953 0.084203)"/>
     <use xlink:href="#Cmr10-6b" transform="translate(1073.144531 0.084203)"/>
     <use xlink:href="#Cmr10-53" transform="translate(1125.830078 0.084203)"/>
     <use xlink:href="#Cmr10-50" transform="translate(1159.130859 0.084203)"/>
     <use xlink:href="#Cmr10-84" transform="translate(1189.648438 0.084203)"/>
     <use xlink:href="#Cmr10-24" transform="translate(1228.759766 0.084203)"/>
     <use xlink:href="#Cmr10-7b" transform="translate(1256.445312 0.084203)"/>
     <use xlink:href="#Cmr10-1c" transform="translate(1300.830078 0.084203)"/>
     <use xlink:href="#Cmr10-24" transform="translate(1339.648438 0.084203)"/>
     <use xlink:href="#Cmr10-42" transform="translate(1367.333984 0.084203)"/>
     <use xlink:href="#Cmr10-74" transform="translate(1417.333984 0.084203)"/>
     <use xlink:href="#Cmr10-53" transform="translate(1472.851562 0.084203)"/>
     <use xlink:href="#Cmr10-77" transform="translate(1506.152344 0.084203)"/>
     <use xlink:href="#Cmmi10-72" transform="translate(1544.970703 0.084203)"/>
     <use xlink:href="#Cmr10-29" transform="translate(1613.994198 0.084203)"/>
     <use xlink:href="#Cmmi10-3f" transform="translate(1711.679802 0.084203)"/>
     <use xlink:href="#Cmr10-31" transform="translate(1780.020062 41.373437) scale(0.7)"/>
     <use xlink:href="#Cmr10-44" transform="translate(1820.740477 0.084203)"/>
    </g>
   </g>
   <g id="legend_1">
    <g id="patch_7">
     <path d="M 237.22 91.022812 
L 317.38 91.022812 
Q 319.78 91.022812 319.78 88.622813 
L 319.78 38.52 
Q 319.78 36.12 317.38 36.12 
L 237.22 36.12 
Q 234.82 36.12 234.82 38.52 
L 234.82 88.622813 
Q 234.82 91.022812 237.22 91.022812 
z
" style="fill: #ffffff; opacity: 0.8; stroke: #cccccc; stroke-linejoin: miter"/>
    </g>
    <g id="line2d_22">
     <path d="M 239.62 45.180937 
L 251.62 45.180937 
L 263.62 45.180937 
" style="fill: none; stroke: #1f77b4; stroke-width: 1.5; stroke-linecap: square"/>
    </g>
    <g id="text_22">
     <!-- $\mu_k=0.0$ -->
     <g transform="translate(273.22 49.380937) scale(0.12 -0.12)">
      <defs>
       <path id="Cmmi10-20" d="M 178 -1203 
Q 178 -1166 184 -1153 
L 1125 2625 
Q 1153 2716 1226 2772 
Q 1300 2828 1394 2828 
Q 1475 2828 1531 2779 
Q 1588 2731 1588 2650 
Q 1588 2631 1586 2620 
Q 1584 2609 1581 2597 
L 1203 1100 
Q 1141 834 1141 641 
Q 1141 403 1253 250 
Q 1366 97 1594 97 
Q 2059 97 2413 678 
Q 2416 684 2417 687 
Q 2419 691 2419 697 
L 2881 2553 
Q 2903 2638 2981 2698 
Q 3059 2759 3150 2759 
Q 3225 2759 3283 2709 
Q 3341 2659 3341 2578 
Q 3341 2541 3334 2528 
L 2875 684 
Q 2828 503 2828 372 
Q 2828 97 3016 97 
Q 3216 97 3317 344 
Q 3419 591 3494 941 
Q 3506 978 3547 978 
L 3622 978 
Q 3647 978 3664 958 
Q 3681 938 3681 916 
Q 3569 469 3436 198 
Q 3303 -72 3003 -72 
Q 2791 -72 2627 50 
Q 2463 172 2413 378 
Q 2253 178 2039 53 
Q 1825 -72 1588 -72 
Q 1188 -72 959 116 
L 634 -1178 
Q 616 -1269 541 -1325 
Q 466 -1381 372 -1381 
Q 294 -1381 236 -1332 
Q 178 -1284 178 -1203 
z
" transform="scale(0.015625)"/>
       <path id="Cmmi10-3e" d="M 341 116 
Q 341 153 347 172 
L 1275 3872 
Q 1300 3981 1306 4044 
Q 1306 4147 891 4147 
Q 825 4147 825 4231 
Q 828 4247 839 4287 
Q 850 4328 867 4350 
Q 884 4372 916 4372 
L 1778 4441 
L 1797 4441 
Q 1797 4434 1819 4423 
Q 1841 4413 1844 4409 
Q 1856 4378 1856 4359 
L 1184 1684 
Q 1416 1781 1767 2145 
Q 2119 2509 2317 2668 
Q 2516 2828 2816 2828 
Q 2994 2828 3119 2706 
Q 3244 2584 3244 2406 
Q 3244 2294 3197 2198 
Q 3150 2103 3065 2043 
Q 2981 1984 2869 1984 
Q 2766 1984 2695 2048 
Q 2625 2113 2625 2216 
Q 2625 2369 2733 2473 
Q 2841 2578 2994 2578 
Q 2931 2663 2803 2663 
Q 2613 2663 2436 2553 
Q 2259 2444 2054 2239 
Q 1850 2034 1681 1864 
Q 1513 1694 1369 1606 
Q 1747 1563 2025 1408 
Q 2303 1253 2303 934 
Q 2303 869 2278 769 
Q 2222 528 2222 384 
Q 2222 97 2419 97 
Q 2650 97 2770 350 
Q 2891 603 2969 941 
Q 2981 978 3022 978 
L 3097 978 
Q 3122 978 3139 962 
Q 3156 947 3156 922 
Q 3156 916 3150 903 
Q 2909 -72 2406 -72 
Q 2225 -72 2086 12 
Q 1947 97 1872 242 
Q 1797 388 1797 569 
Q 1797 672 1825 781 
Q 1844 856 1844 922 
Q 1844 1169 1625 1297 
Q 1406 1425 1125 1453 
L 800 147 
Q 775 50 703 -11 
Q 631 -72 538 -72 
Q 456 -72 398 -17 
Q 341 38 341 116 
z
" transform="scale(0.015625)"/>
       <path id="Cmmi10-33" d="M 538 353 
Q 538 497 644 600 
Q 750 703 891 703 
Q 978 703 1062 656 
Q 1147 609 1194 525 
Q 1241 441 1241 353 
Q 1241 213 1137 106 
Q 1034 0 891 0 
Q 750 0 644 106 
Q 538 213 538 353 
z
" transform="scale(0.015625)"/>
      </defs>
      <use xlink:href="#Cmmi10-20" transform="translate(0 0.390625)"/>
      <use xlink:href="#Cmmi10-3e" transform="translate(60.205078 -14.609337) scale(0.7)"/>
      <use xlink:href="#Cmr10-29" transform="translate(122.326918 0.390625)"/>
      <use xlink:href="#Cmr10-28" transform="translate(220.012522 0.390625)"/>
      <use xlink:href="#Cmmi10-33" transform="translate(270.012522 0.390625)"/>
      <use xlink:href="#Cmr10-28" transform="translate(297.698069 0.390625)"/>
     </g>
    </g>
    <g id="line2d_23">
     <path d="M 239.62 62.281875 
L 251.62 62.281875 
L 263.62 62.281875 
" style="fill: none; stroke: #ff7f0e; stroke-width: 1.5; stroke-linecap: square"/>
    </g>
    <g id="text_23">
     <!-- $\mu_k=0.1$ -->
     <g transform="translate(273.22 66.481875) scale(0.12 -0.12)">
      <use xlink:href="#Cmmi10-20" transform="translate(0 0.390625)"/>
      <use xlink:href="#Cmmi10-3e" transform="translate(60.205078 -14.609337) scale(0.7)"/>
      <use xlink:href="#Cmr10-29" transform="translate(122.326918 0.390625)"/>
      <use xlink:href="#Cmr10-28" transform="translate(220.012522 0.390625)"/>
      <use xlink:href="#Cmmi10-33" transform="translate(270.012522 0.390625)"/>
      <use xlink:href="#Cmr10-64" transform="translate(297.698069 0.390625)"/>
     </g>
    </g>
    <g id="line2d_24">
     <path d="M 239.62 79.382812 
L 251.62 79.382812 
L 263.62 79.382812 
" style="fill: none; stroke: #2ca02c; stroke-width: 1.5; stroke-linecap: square"/>
    </g>
    <g id="text_24">
     <!-- $\mu_k=0.3$ -->
     <g transform="translate(273.22 83.582812) scale(0.12 -0.12)">
      <use xlink:href="#Cmmi10-20" transform="translate(0 0.390625)"/>
      <use xlink:href="#Cmmi10-3e" transform="translate(60.205078 -14.609337) scale(0.7)"/>
      <use xlink:href="#Cmr10-29" transform="translate(122.326918 0.390625)"/>
      <use xlink:href="#Cmr10-28" transform="translate(220.012522 0.390625)"/>
      <use xlink:href="#Cmmi10-33" transform="translate(270.012522 0.390625)"/>
      <use xlink:href="#Cmr10-6e" transform="translate(297.698069 0.390625)"/>
     </g>
    </g>
   </g>
  </g>
 </g>
 <defs>
  <clipPath id="p82f5c71089">
   <rect x="61.4" y="30.12" width="431.8" height="282.386406"/>
  </clipPath>
 </defs>
</svg>
